HIERARCHY
ROOT Hips
{
  OFFSET 0 89.5177 0.535
  CHANNELS 6 Xposition Yposition Zposition Zrotation Xrotation Yrotation
  JOINT Spine
  {
    OFFSET 12.0259 -0.162855 1.69034e-005
    CHANNELS 3 Zrotation Xrotation Yrotation
    JOINT Spine1
    {
      OFFSET 15.3169 -0.0121922 0
      CHANNELS 3 Zrotation Xrotation Yrotation
      JOINT Spine2
      {
        OFFSET 15.3176 -0.0121908 0
        CHANNELS 3 Zrotation Xrotation Yrotation
        JOINT Neck
        {
          OFFSET 19.9142 1.56338 0
          CHANNELS 3 Zrotation Xrotation Yrotation
          JOINT Head
          {
            OFFSET 6.92651 0 0
            CHANNELS 3 Zrotation Xrotation Yrotation
            End Site
            {
              OFFSET 20.7666 0 0
            }
          }
          JOINT LeftShoulder
          {
            OFFSET -6.20654 0.708824 7.28219
            CHANNELS 3 Zrotation Xrotation Yrotation
            JOINT LeftArm
            {
              OFFSET 14.108 0 -1.52588e-005
              CHANNELS 3 Zrotation Xrotation Yrotation
              JOINT LeftForeArm
              {
                OFFSET 28.5802 0 0
                CHANNELS 3 Zrotation Xrotation Yrotation
                JOINT LeftHand
                {
                  OFFSET 27.092 0 0
                  CHANNELS 3 Zrotation Xrotation Yrotation
                  End Site
                  {
                    OFFSET 9.55928 -0.186424 0.145352
                  }
                }
              }
            }
          }
          JOINT RightShoulder
          {
            OFFSET -6.20654 0.708866 -7.28218
            CHANNELS 3 Zrotation Xrotation Yrotation
            JOINT RightArm
            {
              OFFSET 14.108 0 1.52588e-005
              CHANNELS 3 Zrotation Xrotation Yrotation
              JOINT RightForeArm
              {
                OFFSET 28.5802 0 0
                CHANNELS 3 Zrotation Xrotation Yrotation
                JOINT RightHand
                {
                  OFFSET 27.092 0 0
                  CHANNELS 3 Zrotation Xrotation Yrotation
                  End Site
                  {
                    OFFSET 9.55929 -0.186417 -0.145354
                  }
                }
              }
            }
          }
        }
      }
    }
  }
  JOINT LeftUpLeg
  {
    OFFSET 0.005 -0.535 8.837
    CHANNELS 3 Zrotation Xrotation Yrotation
    JOINT LeftLeg
    {
      OFFSET 39.9035 0 0
      CHANNELS 3 Zrotation Xrotation Yrotation
      JOINT LeftFoot
      {
        OFFSET 39.6689 0 0
        CHANNELS 3 Zrotation Xrotation Yrotation
        JOINT LeftToe
        {
          OFFSET 10.1624 13.6296 0
          CHANNELS 3 Zrotation Xrotation Yrotation
          End Site
          {
            OFFSET 8.38147 0 0
          }
        }
      }
    }
  }
  JOINT RightUpLeg
  {
    OFFSET 0.005 -0.535 -8.837
    CHANNELS 3 Zrotation Xrotation Yrotation
    JOINT RightLeg
    {
      OFFSET 39.9035 0 0
      CHANNELS 3 Zrotation Xrotation Yrotation
      JOINT RightFoot
      {
        OFFSET 39.6689 0 0
        CHANNELS 3 Zrotation Xrotation Yrotation
        JOINT RightToe
        {
          OFFSET 10.1624 13.6296 0
          CHANNELS 3 Zrotation Xrotation Yrotation
          End Site
          {
            OFFSET 8.38147 0 0
          }
        }
      }
    }
  }
}
MOTION
Frames:	12
Frame Time:	0.0333333
244.237 86.4775 -258.653 -95.9216 43.9494 -178.353 1.61938 -3.02864 -0.154526 3.23739 -6.05996 -0.223461 3.23739 -6.05996 -0.223471 -8.30828e-012 -9.0191e-006 -5.27751e-005 14.8419 -32.1927 17.7758 -174.869 -22.7748 -76.9397 -31.2694 -10.3143 55.1347 -23.0959 6.36111e-015 -2.38542e-015 -21.7084 -58.8498 -25.3499 -174.622 16.9558 72.1101 -20.6354 -9.02544 -57.9691 -28.3909 -3.18055e-015 -7.95139e-015 -69.4478 70.6353 72.8259 -2.47044 0.0603061 176.185 -23.242 9.54166e-015 4.77083e-015 26.2534 9.60864 0.653425 90 -1.98785e-015 3.18055e-015 -28.9896 -18.8466 -178.691 -14.4496 1.27222e-014 -1.98785e-015 5.87209 -1.85814 -0.697262 90 2.38542e-015 6.36111e-015 
245.788 86.2163 -257.603 -95.8232 41.741 -178.564 1.66397 -3.16211 -0.0990765 3.33009 -6.32529 -0.10608 3.33008 -6.32529 -0.106089 -8.30748e-012 -9.0191e-006 -5.27751e-005 14.8239 -33.0472 18.2944 -174.888 -22.8161 -77.01 -32.755 -10.5916 55.1653 -23.6933 -9.54166e-015 -3.18055e-015 -21.7666 -59.0187 -25.4243 -174.576 17.0185 72.0271 -19.8747 -8.505 -57.6717 -28.5446 3.18055e-015 -0 -69.9768 70.4771 73.4006 -1.32967 -1.1182 176.293 -23.0751 9.54166e-015 7.95139e-015 26.6019 9.96903 -0.71267 90 -7.95139e-016 -6.36111e-015 -29.7378 -19.0357 -177.977 -14.7637 9.54167e-015 -4.37326e-015 6.96027 -2.22876 -1.20469 90 0 -3.18055e-015 
247.462 85.9442 -256.459 -95.8369 39.8957 -178.504 1.67156 -3.27978 -0.0752633 3.34705 -6.55987 -0.0544669 3.34705 -6.55987 -0.0544763 -8.30748e-012 -9.0191e-006 -5.27751e-005 14.5925 -33.7418 18.613 -174.903 -22.8636 -77.0712 -33.9899 -10.7195 55.2507 -24.5084 6.36111e-015 3.97569e-015 -22.0439 -59.268 -25.7339 -174.488 17.1064 71.8362 -19.263 -8.17741 -57.3688 -28.712 -3.18055e-015 -6.36111e-015 -70.1873 70.4398 73.628 0.156936 -1.5151 176.383 -22.327 3.18055e-015 -3.18055e-015 26.4928 10.0824 -2.70321 90 1.59028e-015 -3.18055e-015 -30.6692 -18.855 -177.405 -16.153 3.18056e-015 1.59028e-015 8.46483 -2.76659 -2.38767 90 4.77083e-015 9.54166e-015 
249.266 85.6683 -255.195 -95.925 38.3637 -178.417 1.64795 -3.39004 -0.0311709 3.30276 -6.7791 0.0357779 3.30275 -6.7791 0.0357685 -8.30828e-012 -9.0191e-006 -5.27751e-005 14.2687 -34.2036 18.7003 -174.888 -22.9351 -77.0702 -34.8943 -10.6085 55.4216 -25.5194 -6.36111e-015 -6.36111e-015 -22.9813 -59.4919 -26.7335 -174.397 17.1779 71.6249 -18.6656 -7.8242 -57.1656 -28.6175 3.18055e-015 -0 -70.3111 70.3532 73.7659 2.69028 -1.38502 176.461 -19.8528 -1.59028e-014 -7.95139e-015 26.1513 9.93733 -3.56223 90 1.59028e-015 -9.54166e-015 -31.3446 -18.6594 -176.679 -18.2357 -6.36111e-015 -3.18056e-015 10.1231 -3.16629 -4.64049 90 0 3.18055e-015 
251.234 85.3836 -253.842 -96.0763 36.9033 -178.283 1.58398 -3.52051 0.0392699 3.17943 -7.03809 0.176891 3.17943 -7.03809 0.176882 -8.30907e-012 -9.0191e-006 -5.27751e-005 13.8228 -34.4084 18.415 -174.833 -23.0409 -76.9907 -35.6149 -10.1688 55.7133 -26.6661 -6.36111e-015 -1.59028e-015 -23.5582 -59.8241 -27.3655 -174.297 17.3189 71.454 -18.2866 -7.70988 -57.0424 -28.4061 -9.54166e-015 1.59028e-015 -70.1955 70.389 73.64 6.80712 -1.19743 176.4 -14.5846 0 3.18055e-015 25.2849 9.64948 -3.04834 90 0 3.18055e-015 -31.5599 -18.7226 -175.934 -20.8432 0 5.96354e-016 11.7395 -3.40102 -8.15325 90 -1.59028e-015 -9.54166e-015 
253.365 85.0501 -252.426 -96.2926 35.3599 -177.904 1.47508 -3.6603 0.0916489 2.96514 -7.31654 0.278917 2.96514 -7.31654 0.278908 -8.3035e-012 -9.0191e-006 -5.27751e-005 13.2646 -34.4889 17.9764 -174.824 -23.0219 -76.958 -36.3091 -9.20466 56.1128 -28.0573 -6.36111e-015 -0 -24.0931 -60.183 -27.9558 -174.171 17.5282 71.275 -17.9053 -7.85617 -56.9225 -28.2422 9.54166e-015 -0 -70.0064 70.5077 73.4305 15.6005 -1.41939 176.221 -4.98943e-006 -6.36111e-015 -7.95139e-016 19.8677 9.2234 -2.34878 90 0 9.54166e-015 -32.4676 -18.951 -176.174 -25.5201 -6.36111e-015 3.97569e-015 12.4159 -3.29097 -9.48349 90 -1.59028e-015 3.18055e-015 
255.593 84.7587 -250.88 -96.7488 33.7388 -177.718 1.34315 -3.79285 0.2436 2.71143 -7.57841 0.57852 2.71143 -7.57841 0.57851 -8.30987e-012 -9.0191e-006 -5.27751e-005 12.2443 -34.6078 17.4045 -174.756 -22.993 -76.778 -36.9638 -7.82688 56.4682 -29.9034 3.18055e-015 1.59028e-015 -24.4708 -60.5274 -28.3797 -174.027 17.7947 71.1011 -17.5592 -8.03461 -56.833 -28.0037 0 -3.18055e-015 -69.7481 70.676 73.1441 16.9551 -0.579442 176.362 -2.5746e-006 0 1.59028e-015 19.9147 9.69557 -2.19404 90 -1.19271e-015 3.18055e-015 -32.7895 -19.4062 -176.22 -28.5096 -1.59028e-014 -1.59028e-015 11.6681 -4.04786 -9.81299 90 7.95139e-016 -3.18055e-015 
257.76 84.6486 -249.324 -97.4786 32.5797 -177.748 1.21672 -3.79045 0.492666 2.47428 -7.56893 1.06976 2.47428 -7.56893 1.06975 -8.30907e-012 -9.0191e-006 -5.27751e-005 10.9954 -34.6898 16.8551 -174.512 -23.0349 -76.2034 -37.744 -6.30635 56.5268 -31.8542 -3.18055e-015 -3.18055e-015 -25.0872 -60.8878 -29.0564 -173.859 17.984 70.7887 -17.1839 -7.89758 -56.6032 -27.3081 3.18055e-015 3.18055e-015 -69.5615 70.7297 72.9417 12.5697 0.55242 176.942 -10.8359 1.27222e-014 4.77083e-015 23.6071 10.4023 -1.76 90 0 3.18055e-015 -31.9295 -19.2261 -175.388 -28.0679 6.36111e-015 -7.95139e-016 8.21956 -2.28981 -10.3888 90 7.95139e-016 -9.54166e-015 
259.95 84.7338 -247.826 -97.9028 32.5163 -177.752 1.12965 -3.59991 0.708442 2.31076 -7.18435 1.49259 2.31076 -7.18435 1.49258 -8.30748e-012 -9.0191e-006 -5.27751e-005 9.716 -34.4983 16.1066 -174.135 -23.2409 -75.4086 -37.439 -5.36966 57.1323 -33.1862 -6.36111e-015 -3.18055e-015 -25.8006 -60.8859 -29.8092 -173.923 17.7812 70.7815 -16.6557 -7.43798 -56.6218 -25.79 3.18055e-015 -1.59028e-015 -68.9356 70.6482 72.2784 8.96684 2.65885 177.339 -20.4344 0 -0 24.4351 11.3749 -1.09252 90 1.19271e-015 9.54166e-015 -30.298 -18.1443 -174.532 -27.0518 -9.54167e-015 -7.95139e-016 5.03767 -1.08461 -10.2398 90 -9.93923e-017 -6.36111e-015 
262.101 84.9331 -246.379 -98.0248 32.5198 -177.676 1.09622 -3.40037 0.842321 2.24844 -6.7831 1.75457 2.24844 -6.7831 1.75456 -8.30669e-012 -9.0191e-006 -5.27751e-005 8.84384 -34.4218 15.6035 -173.851 -23.2434 -74.7304 -36.2941 -4.56287 57.9651 -34.1977 6.36111e-015 7.95139e-015 -26.8659 -60.9942 -30.9448 -174.082 17.5448 71.0247 -16.6741 -6.67773 -57.0779 -23.8227 -3.18055e-015 -6.36111e-015 -67.9804 70.5114 71.2661 3.78899 6.21597 178.408 -32.7755 -3.18055e-015 1.59028e-015 23.3876 13.2556 -2.10857 90 2.38542e-015 -3.18055e-015 -29.1869 -17.5463 -174.566 -28.1674 6.36111e-015 1.59028e-015 6.36526 -0.894645 -9.71042 90 -1.49089e-016 -6.36111e-015 
264.128 85.1521 -244.912 -97.86 31.8239 -177.726 1.09417 -3.28668 0.929483 2.24725 -6.55403 1.92668 2.24725 -6.55403 1.92667 -8.3035e-012 -9.0191e-006 -5.27751e-005 8.40784 -34.5169 14.9938 -173.739 -23.1566 -74.412 -35.1451 -3.81501 58.9418 -34.6822 -3.18055e-015 1.59028e-015 -27.0883 -60.9923 -31.1803 -174.266 17.3933 71.4338 -17.2251 -6.53668 -57.6894 -22.9481 1.59028e-014 3.18055e-015 -66.9497 70.5592 70.1637 -3.03186 9.30483 -178.918 -46.2961 -3.18055e-015 -0 19.3396 15.4771 -6.74225 90 4.77083e-015 -3.18055e-015 -27.6795 -18.948 -175.051 -29.1923 -6.36111e-015 3.18056e-015 8.63858 -1.95508 -9.51576 90 0 3.18055e-015 
265.934 85.3086 -243.491 -97.7212 30.8806 -177.607 1.08957 -3.14 0.912795 2.23421 -6.26116 1.88973 2.23421 -6.26116 1.88972 -8.30748e-012 -9.0191e-006 -5.27751e-005 8.67526 -34.9082 15.1121 -173.781 -22.9932 -74.4133 -34.472 -3.15657 59.7211 -34.6949 -3.18055e-015 -1.59028e-015 -26.7313 -60.9305 -30.7972 -174.254 17.4482 71.4503 -18.6874 -7.37242 -57.8174 -23.8451 -1.59028e-014 -3.18055e-015 -66.3554 71.0438 69.5088 -10.3142 10.5753 -175.587 -57.4771 0 -0 10.5765 17.0268 -13.5059 90 -1.19271e-015 -0 -26.3233 -19.8851 -175.517 -29.8959 0 -1.59028e-015 10.4739 -2.1719 -9.3226 90 0 3.18055e-015 
